<svg width="25" height="12" viewBox="0 0 25 12" fill="none" xmlns="http://www.w3.org/2000/svg">
<path d="M1.43652 4.80884C1.02231 4.80884 0.686523 5.14462 0.686523 5.55884C0.686523 5.97305 1.02231 6.30884 1.43652 6.30884L1.43652 4.80884ZM23.9045 6.08917C24.1974 5.79628 24.1974 5.3214 23.9045 5.02851L19.1316 0.255538C18.8387 -0.0373551 18.3638 -0.0373552 18.0709 0.255538C17.778 0.548431 17.778 1.0233 18.0709 1.3162L22.3135 5.55884L18.0709 9.80148C17.778 10.0944 17.778 10.5692 18.0709 10.8621C18.3638 11.155 18.8387 11.155 19.1316 10.8621L23.9045 6.08917ZM1.43652 6.30884L23.3742 6.30884L23.3742 4.80884L1.43652 4.80884L1.43652 6.30884Z" fill="#00C2FF"/>
</svg>
