<svg width="16" height="16" viewBox="0 0 16 16" fill="none" xmlns="http://www.w3.org/2000/svg">
<g clip-path="url(#clip0_283_947)">
<path d="M8.37159 2.42024H8.45434C9.21864 2.42303 13.0913 2.45093 14.1354 2.73173C14.4511 2.81743 14.7387 2.98447 14.9696 3.21616C15.2005 3.44785 15.3665 3.73608 15.4511 4.05205C15.545 4.40537 15.611 4.87306 15.6557 5.35563L15.665 5.45233L15.6854 5.69408L15.6929 5.79078C15.7533 6.64062 15.7607 7.43653 15.7617 7.6104V7.68014C15.7607 7.86052 15.7524 8.71036 15.6854 9.59553L15.678 9.69316L15.6696 9.78986C15.6231 10.3217 15.5543 10.8498 15.4511 11.2385C15.3668 11.5546 15.2008 11.8429 14.9699 12.0747C14.739 12.3064 14.4512 12.4734 14.1354 12.5588C13.0569 12.8489 8.95736 12.8694 8.38925 12.8703H8.25722C7.96991 12.8703 6.78162 12.8647 5.53569 12.8219L5.37762 12.8164L5.29673 12.8127L5.13773 12.8061L4.97873 12.7996C3.94665 12.7541 2.96385 12.6806 2.51104 12.5579C2.19536 12.4725 1.90766 12.3057 1.67675 12.0741C1.44584 11.8426 1.27984 11.5544 1.19537 11.2385C1.09216 10.8508 1.02335 10.3217 0.976863 9.78986L0.969424 9.69223L0.961986 9.59553C0.916098 8.9655 0.89067 8.33414 0.885742 7.70245L0.885742 7.58809C0.887602 7.38818 0.89504 6.69734 0.94525 5.9349L0.951758 5.83913L0.954548 5.79078L0.961986 5.69408L0.982442 5.45233L0.99174 5.35563C1.03637 4.87306 1.10239 4.40444 1.1963 4.05205C1.28062 3.73596 1.44656 3.44759 1.67748 3.21586C1.9084 2.98412 2.19618 2.81717 2.51197 2.73173C2.96478 2.61085 3.94758 2.53647 4.97966 2.48998L5.13773 2.48347L5.29766 2.47789L5.37762 2.4751L5.53662 2.46859C6.42152 2.44012 7.30678 2.42431 8.19213 2.42117H8.37159V2.42024ZM6.83648 5.40491V9.8847L10.7017 7.64574L6.83648 5.40491Z" fill="white"/>
</g>
<defs>
<clipPath id="clip0_283_947">
<rect width="14.8768" height="14.8768" fill="white" transform="translate(0.885742 0.561569)"/>
</clipPath>
</defs>
</svg>
