<svg width="25" height="12" viewBox="0 0 25 12" fill="none" xmlns="http://www.w3.org/2000/svg">
<path d="M1.65234 5.67041C1.23813 5.67041 0.902344 6.0062 0.902344 6.42041C0.902344 6.83462 1.23813 7.17041 1.65234 7.17041L1.65234 5.67041ZM24.1204 6.95074C24.4132 6.65785 24.4132 6.18297 24.1204 5.89008L19.3474 1.11711C19.0545 0.824217 18.5796 0.824217 18.2867 1.11711C17.9938 1.41 17.9938 1.88488 18.2867 2.17777L22.5294 6.42041L18.2867 10.6631C17.9938 10.9559 17.9938 11.4308 18.2867 11.7237C18.5796 12.0166 19.0545 12.0166 19.3474 11.7237L24.1204 6.95074ZM1.65234 7.17041L23.59 7.17041L23.59 5.67041L1.65234 5.67041L1.65234 7.17041Z" fill="white"/>
</svg>
