<svg width="24" height="24" viewBox="0 0 24 24" fill="none" xmlns="http://www.w3.org/2000/svg">
<g id="Layer 2">
<g id="menu">
<path id="Vector" d="M22.7371 10.134H2.01843C1.34324 10.134 0.795898 10.9277 0.795898 11.9067V12.0933C0.795898 13.0723 1.34324 13.866 2.01843 13.866H22.7371C23.4123 13.866 23.9596 13.0723 23.9596 12.0933V11.9067C23.9596 10.9277 23.4123 10.134 22.7371 10.134Z" fill="white"/>
<path id="Vector_2" d="M22.7371 19.4627H2.01843C1.34324 19.4627 0.795898 20.2563 0.795898 21.2354V21.422C0.795898 22.401 1.34324 23.1947 2.01843 23.1947H22.7371C23.4123 23.1947 23.9596 22.401 23.9596 21.422V21.2354C23.9596 20.2563 23.4123 19.4627 22.7371 19.4627Z" fill="white"/>
<path id="Vector_3" d="M22.7371 0.805344H2.01843C1.34324 0.805344 0.795898 1.599 0.795898 2.57803V2.76463C0.795898 3.74366 1.34324 4.53732 2.01843 4.53732H22.7371C23.4123 4.53732 23.9596 3.74366 23.9596 2.76463V2.57803C23.9596 1.599 23.4123 0.805344 22.7371 0.805344Z" fill="white"/>
</g>
</g>
</svg>
