<svg width="16" height="16" viewBox="0 0 16 16" fill="none" xmlns="http://www.w3.org/2000/svg">
<g clip-path="url(#clip0_283_944)">
<path d="M7.96381 0.561569C5.94521 0.561569 5.69138 0.570867 4.89825 0.6062C4.10513 0.643392 3.56492 0.767985 3.09165 0.952086C2.59522 1.13881 2.14556 1.4317 1.77412 1.81029C1.39576 2.18193 1.1029 2.63153 0.915908 3.12783C0.731807 3.60017 0.606283 4.14131 0.570021 4.93164C0.534689 5.72662 0.525391 5.97953 0.525391 8.00092C0.525391 10.0205 0.534689 10.2734 0.570021 11.0665C0.607213 11.8587 0.731807 12.3989 0.915908 12.8722C1.10652 13.3612 1.36035 13.7759 1.77412 14.1897C2.18695 14.6035 2.60164 14.8582 3.09072 15.0479C3.56492 15.232 4.1042 15.3575 4.89639 15.3938C5.69045 15.4291 5.94335 15.4384 7.96381 15.4384C9.98428 15.4384 10.2363 15.4291 11.0303 15.3938C11.8216 15.3566 12.3636 15.232 12.8369 15.0479C13.333 14.8611 13.7824 14.5682 14.1535 14.1897C14.5673 13.7759 14.8211 13.3612 15.0117 12.8722C15.1949 12.3989 15.3204 11.8587 15.3576 11.0665C15.3929 10.2734 15.4022 10.0205 15.4022 7.99999C15.4022 5.97953 15.3929 5.72662 15.3576 4.93257C15.3204 4.14131 15.1949 3.60017 15.0117 3.12783C14.8248 2.63152 14.5319 2.18191 14.1535 1.81029C13.7822 1.43156 13.3325 1.13865 12.836 0.952086C12.3618 0.767985 11.8206 0.642462 11.0294 0.6062C10.2353 0.570867 9.98335 0.561569 7.96196 0.561569H7.96475H7.96381ZM7.29715 1.90235H7.96475C9.9508 1.90235 10.186 1.90885 10.9699 1.94512C11.6951 1.97766 12.0894 2.09946 12.3516 2.20081C12.6984 2.33563 12.9466 2.49742 13.207 2.75776C13.4673 3.01811 13.6282 3.26544 13.763 3.61318C13.8653 3.87446 13.9861 4.26869 14.0187 4.99394C14.055 5.77776 14.0624 6.013 14.0624 7.99813C14.0624 9.98326 14.055 10.2194 14.0187 11.0033C13.9861 11.7285 13.8643 12.1218 13.763 12.384C13.6437 12.707 13.4534 12.999 13.206 13.2385C12.9457 13.4988 12.6984 13.6597 12.3506 13.7945C12.0903 13.8968 11.696 14.0177 10.9699 14.0512C10.186 14.0865 9.9508 14.0949 7.96475 14.0949C5.97869 14.0949 5.74252 14.0865 4.95869 14.0512C4.23345 14.0177 3.84014 13.8968 3.57793 13.7945C3.25483 13.6754 2.96252 13.4854 2.72252 13.2385C2.47496 12.9986 2.28432 12.7063 2.16463 12.3831C2.06328 12.1218 1.94148 11.7276 1.90894 11.0023C1.87361 10.2185 1.86617 9.98326 1.86617 7.99627C1.86617 6.01021 1.87361 5.7759 1.90894 4.99208C1.94241 4.26683 2.06328 3.8726 2.16556 3.61039C2.30038 3.26358 2.46217 3.01532 2.72252 2.75497C2.98286 2.49463 3.23019 2.33377 3.57793 2.19895C3.84014 2.09667 4.23345 1.9758 4.95869 1.94233C5.64489 1.91071 5.91081 1.90142 7.29715 1.90049V1.90235ZM11.935 3.13712C11.8178 3.13712 11.7017 3.16021 11.5934 3.20507C11.4851 3.24993 11.3867 3.31568 11.3038 3.39856C11.2209 3.48145 11.1552 3.57985 11.1103 3.68815C11.0655 3.79644 11.0424 3.91252 11.0424 4.02973C11.0424 4.14695 11.0655 4.26303 11.1103 4.37132C11.1552 4.47962 11.2209 4.57802 11.3038 4.66091C11.3867 4.74379 11.4851 4.80954 11.5934 4.8544C11.7017 4.89926 11.8178 4.92235 11.935 4.92235C12.1717 4.92235 12.3988 4.8283 12.5662 4.66091C12.7336 4.49351 12.8276 4.26647 12.8276 4.02973C12.8276 3.793 12.7336 3.56596 12.5662 3.39856C12.3988 3.23117 12.1717 3.13712 11.935 3.13712ZM7.96475 4.18036C7.45807 4.17246 6.95488 4.26543 6.48448 4.45386C6.01408 4.64229 5.58586 4.92241 5.22476 5.27792C4.86365 5.63344 4.57688 6.05723 4.38114 6.52464C4.18539 6.99204 4.08458 7.49372 4.08458 8.00046C4.08458 8.5072 4.18539 9.00887 4.38114 9.47628C4.57688 9.94368 4.86365 10.3675 5.22476 10.723C5.58586 11.0785 6.01408 11.3586 6.48448 11.5471C6.95488 11.7355 7.45807 11.8285 7.96475 11.8206C8.96758 11.8049 9.92404 11.3956 10.6277 10.6808C11.3313 9.96614 11.7257 9.00341 11.7257 8.00046C11.7257 6.99751 11.3313 6.03477 10.6277 5.32007C9.92404 4.60536 8.96758 4.19601 7.96475 4.18036ZM7.96475 5.52021C8.62243 5.52021 9.25317 5.78147 9.71822 6.24652C10.1833 6.71157 10.4445 7.34231 10.4445 7.99999C10.4445 8.65767 10.1833 9.28842 9.71822 9.75347C9.25317 10.2185 8.62243 10.4798 7.96475 10.4798C7.30707 10.4798 6.67632 10.2185 6.21127 9.75347C5.74622 9.28842 5.48496 8.65767 5.48496 7.99999C5.48496 7.34231 5.74622 6.71157 6.21127 6.24652C6.67632 5.78147 7.30707 5.52021 7.96475 5.52021Z" fill="white"/>
</g>
<defs>
<clipPath id="clip0_283_944">
<rect width="14.8768" height="14.8768" fill="white" transform="translate(0.525391 0.561569)"/>
</clipPath>
</defs>
</svg>
