<svg width="14" height="13" viewBox="0 0 14 13" fill="none" xmlns="http://www.w3.org/2000/svg">
<path fill-rule="evenodd" clip-rule="evenodd" d="M3.65388 12.9199H0.868164V5.20557H3.65388V12.9199Z" fill="#4F4F4F"/>
<path fill-rule="evenodd" clip-rule="evenodd" d="M2.25274 3.49135H2.23691C1.4056 3.49135 0.868164 2.91966 0.868164 2.20519C0.868164 1.47561 1.42196 0.919922 2.26906 0.919922C3.11615 0.919922 3.63781 1.47561 3.65388 2.20519C3.65388 2.91966 3.11615 3.49135 2.25274 3.49135Z" fill="#4F4F4F"/>
<path fill-rule="evenodd" clip-rule="evenodd" d="M13.8678 12.9197H11.1304V8.8873C11.1304 7.87446 10.7343 7.18332 9.7433 7.18332C8.98701 7.18332 8.53654 7.64925 8.3387 8.09927C8.26632 8.26055 8.24855 8.48525 8.24855 8.71051V12.9199H5.51074C5.51074 12.9199 5.54682 6.08999 5.51074 5.38275H8.24855V6.45032C8.61188 5.93712 9.2626 5.20557 10.716 5.20557C12.5174 5.20557 13.8679 6.28304 13.8679 8.59811L13.8678 12.9197Z" fill="#4F4F4F"/>
</svg>
