<svg width="16" height="13" viewBox="0 0 16 13" fill="none" xmlns="http://www.w3.org/2000/svg">
<path fill-rule="evenodd" clip-rule="evenodd" d="M8.15152 4.11211L8.18404 4.63114L7.64212 4.56759C5.66954 4.32396 3.94625 3.49774 2.48307 2.11012L1.76775 1.42161L1.58349 1.93005C1.19331 3.06345 1.4426 4.2604 2.25547 5.06544C2.689 5.51032 2.59146 5.57388 1.84361 5.30907C1.58349 5.22433 1.35589 5.16077 1.33421 5.19255C1.25834 5.2667 1.51846 6.23062 1.72439 6.61195C2.00619 7.14157 2.58062 7.66061 3.20924 7.96779L3.74032 8.21142L3.1117 8.22201C2.50475 8.22201 2.48307 8.2326 2.5481 8.45505C2.76487 9.14356 3.6211 9.87444 4.57487 10.1922L5.24685 10.4147L4.66158 10.7536C3.79451 11.2409 2.77571 11.5163 1.75691 11.5375C1.26918 11.5481 0.868164 11.5904 0.868164 11.6222C0.868164 11.7281 2.19044 12.3213 2.95996 12.5544C5.26853 13.2429 8.01062 12.9463 10.0699 11.7705C11.5331 10.9337 12.9963 9.27067 13.6791 7.66061C14.0476 6.80261 14.4161 5.23492 14.4161 4.48285C14.4161 3.99559 14.4486 3.93204 15.0555 3.34945C15.4132 3.01049 15.7492 2.63975 15.8142 2.53382C15.9226 2.33256 15.9118 2.33256 15.359 2.51264C14.4377 2.83041 14.3077 2.78804 14.7629 2.31138C15.0989 1.97242 15.4999 1.35805 15.4999 1.17798C15.4999 1.1462 15.3373 1.19916 15.1531 1.2945C14.958 1.40042 14.5245 1.55931 14.1993 1.65464L13.614 1.83472L13.083 1.48516C12.7903 1.2945 12.3785 1.08265 12.1617 1.01909C11.6089 0.870796 10.7636 0.891982 10.265 1.06146C8.9102 1.53813 8.05398 2.76686 8.15152 4.11211Z" fill="#4F4F4F"/>
</svg>
