<svg width="15" height="14" viewBox="0 0 15 14" fill="none" xmlns="http://www.w3.org/2000/svg">
<path fill-rule="evenodd" clip-rule="evenodd" d="M7.34758 4.15193L7.37983 4.67841L6.84236 4.61394C4.88598 4.36682 3.17684 3.52876 1.72568 2.12126L1.01622 1.42288L0.83348 1.9386C0.446504 3.08825 0.693739 4.30235 1.49994 5.11892C1.92991 5.57019 1.83317 5.63465 1.09146 5.36604C0.83348 5.28009 0.607744 5.21562 0.586245 5.24786C0.511 5.32307 0.768984 6.3008 0.973222 6.6876C1.2527 7.22481 1.82242 7.75128 2.44588 8.06287L2.9726 8.30999L2.34914 8.32073C1.74717 8.32073 1.72568 8.33148 1.79017 8.55711C2.00516 9.25549 2.85436 9.99685 3.8003 10.3192L4.46676 10.5448L3.88629 10.8886C3.02635 11.3829 2.01591 11.6622 1.00547 11.6837C0.521749 11.6945 0.124023 11.7374 0.124023 11.7697C0.124023 11.8771 1.43544 12.4788 2.19865 12.7152C4.48826 13.4135 7.20784 13.1127 9.25022 11.9201C10.7014 11.0713 12.1525 9.38442 12.8297 7.75128C13.1952 6.88099 13.5607 5.29083 13.5607 4.52799C13.5607 4.03375 13.593 3.96928 14.1949 3.37834C14.5496 3.03452 14.8829 2.65847 14.9474 2.55103C15.0549 2.34689 15.0441 2.34689 14.4959 2.52954C13.5822 2.85187 13.4532 2.80889 13.9047 2.3254C14.2379 1.98158 14.6356 1.35841 14.6356 1.17576C14.6356 1.14352 14.4744 1.19725 14.2917 1.29394C14.0982 1.40139 13.6682 1.56255 13.3457 1.65925L12.7653 1.84191L12.2385 1.48734C11.9483 1.29394 11.5398 1.07906 11.3248 1.01459C10.7766 0.864172 9.93817 0.88566 9.4437 1.05757C8.10004 1.54106 7.25084 2.78741 7.34758 4.15193Z" fill="white"/>
</svg>
